
<svg xmlns="http://www.w3.org/2000/svg" viewBox="0 0 448 512" fill="#3B82F6">
  <path d="M448 384c0 35.3-28.7 64-64 64H64c-35.3 0-64-28.7-64-64v-48c0-23.7 12.9-44.4 32-55.4V208c0-8.8 7.2-16 16-16H400c8.8 0 16 7.2 16 16v72.6c19.1 11.1 32 31.7 32 55.4V384zM64 432H384c8.8 0 16-7.2 16-16V416H48v.1c0 8.8 7.2 15.9 16 15.9zm336-136.1V224H48v71.9c0-2.5 2-4.5 4.5-4.5c.8 0 1.6 .2 2.2 .6l29.5 16.4c5 2.8 11.1 2.8 16.1 0l29.5-16.4c5-2.8 11.1-2.8 16.1 0l29.5 16.4c5 2.8 11.1 2.8 16.1 0l29.5-16.4c5-2.8 11.1-2.8 16.1 0l29.5 16.4c5 2.8 11.1 2.8 16.1 0l29.5-16.4c5-2.8 11.1-2.8 16.1 0l29.5 16.4c5 2.8 11.1 2.8 16.1 0l29.5-16.4c.6-.4 1.4-.6 2.2-.6c2.5 0 4.5 2 4.5 4.5zM80 336a16 16 0 1 1 0-32 16 16 0 1 1 0 32zm80-32a16 16 0 1 1 -32 0 16 16 0 1 1 32 0zm64 16a16 16 0 1 1 0-32 16 16 0 1 1 0 32zm80-16a16 16 0 1 1 -32 0 16 16 0 1 1 32 0zm64 16a16 16 0 1 1 0-32 16 16 0 1 1 0 32zM311.8 83.7c9.3-2.8 17.1-9.3 21.8-18.1s5.8-18.9 2.5-28.0c-21.6-60.2-81.1-75.7-125.1-75.7c-9.3 0-17.7 1.1-24.1 2.2c-6.7 1.1-13.2 3.5-19.3 7.1L307.1 87.3c1.5-1.2 3.1-2.4 4.7-3.6zM279.5 62C296.9 43 318.1 17.8 295.9 1.9C286.1-3.5 274-7.8 260.4-9.5c-34.6-4.1-76.7 10.2-107.4 30.1L279.5 62zM174.4 0c-18.7 0-37.4 11.7-40.3 29.5c-1.7 10.9 2.2 22.2 9.5 30.5L194.7 17c-6.5-10.5-13.4-17-20.3-17zM96 304v5.3c0 15.4 10.7 28.7 25.7 32c4.7 1 9.5 1.5 14.3 1.5c0 .6 0 1.1 0 1.7c0 15.4 10.7 28.7 25.7 32c4.7 1 9.5 1.5 14.3 1.5c0 .6 0 1.1 0 1.7c0 15.4 10.7 28.7 25.7 32c4.7 1 9.5 1.5 14.3 1.5c0 .6 0 1.1 0 1.7c0 15.4 10.7 28.7 25.7 32c4.7 1 9.5 1.5 14.3 1.5c0 .6 0 1.1 0 1.7c0 15.4 10.7 28.7 25.7 32c12.1 2.5 23.4-3.1 29.3-12.7c5.9 9.6 17.2 15.2 29.3 12.7c14.9-3.1 25.6-16.5 25.7-31.8c0-.6 0-1.1 0-1.7c4.8 0 9.6-.5 14.3-1.5c15-3.1 25.6-16.5 25.7-31.8c0-.6 0-1.1 0-1.7c4.8 0 9.6-.5 14.3-1.5c15-3.1 25.7-16.3 25.7-31.9V304c0-8.8-7.2-16-16-16H112c-8.8 0-16 7.2-16 16z"/>
</svg>
